<?xml version="1.0" encoding="UTF-8"?>
<svg id="Warstwa_2" data-name="Warstwa 2" xmlns="http://www.w3.org/2000/svg" viewBox="0 0 364.33 288.14">
  <defs>
    <style>
      .cls-1 {
        fill: none;
        stroke: #13110c;
        stroke-miterlimit: 10;
        stroke-width: .4px;
      }

      .cls-2 {
        fill: #e37f73;
      }

      .cls-3 {
        fill: #f18e8a;
      }

      .cls-4 {
        fill: #d67063;
      }
    </style>
  </defs>
  <g id="base">
    <g>
      <g>
        <path class="cls-3" d="M364.08,256.96v8.46l-114.44,22.46v-108.85l114.44-20.18v98.1ZM356.38,258.55v-89.3l-97.47,16.99v90.77l97.47-18.47Z"/>
        <polygon class="cls-4" points="364.08 158.86 249.64 179.04 .37 11.07 101.95 .25 364.08 158.86"/>
        <polygon class="cls-2" points="356.38 169.25 356.38 258.55 258.91 193.8 258.91 186.24 356.38 169.25"/>
        <polygon class="cls-4" points="356.38 258.55 258.91 277.02 258.91 193.8 356.38 258.55"/>
        <polygon class="cls-2" points="249.64 278.89 249.64 287.89 .34 117.37 .37 117.32 .37 11.07 249.64 179.04 249.64 278.89"/>
      </g>
      <g>
        <line class="cls-1" x1=".25" y1="117.32" x2="249.64" y2="287.89"/>
        <line class="cls-1" x1="249.64" y1="179.05" x2="249.64" y2="287.88"/>
        <line class="cls-1" x1="249.64" y1="287.89" x2="364.08" y2="265.43"/>
        <line class="cls-1" x1="249.64" y1="278.89" x2="249.64" y2="287.89"/>
        <line class="cls-1" x1="258.92" y1="277.02" x2="356.37" y2="258.55"/>
        <line class="cls-1" x1="364.08" y1="256.96" x2="364.08" y2="265.43"/>
        <line class="cls-1" x1=".37" y1="117.32" x2=".37" y2="11.07"/>
        <line class="cls-1" x1="249.64" y1="179.05" x2="364.08" y2="158.87"/>
        <line class="cls-1" x1="364.08" y1="256.96" x2="364.08" y2="158.87"/>
        <line class="cls-1" x1="258.92" y1="186.24" x2="356.37" y2="169.26"/>
        <line class="cls-1" x1=".37" y1="11.07" x2="101.95" y2=".25"/>
        <line class="cls-1" x1="101.95" y1=".25" x2="364.08" y2="158.87"/>
        <line class="cls-1" x1="258.92" y1="277.02" x2="258.92" y2="186.24"/>
        <line class="cls-1" x1="356.37" y1="258.55" x2="356.37" y2="169.26"/>
        <line class="cls-1" x1="258.92" y1="193.8" x2="356.37" y2="258.55"/>
        <line class="cls-1" x1=".37" y1="11.07" x2="249.64" y2="179.05"/>
      </g>
    </g>
  </g>
</svg>